<?xml version="1.0" encoding="UTF-8" standalone="no"?>
<!DOCTYPE svg PUBLIC "-//W3C//DTD SVG 1.1//EN"
 "http://www.w3.org/Graphics/SVG/1.1/DTD/svg11.dtd">
<!-- Generated by graphviz version 2.43.0 (0)
 -->
<!-- Title: MCC Pages: 1 -->
<svg width="689pt" height="2004pt"
 viewBox="0.00 0.00 688.53 2004.05" xmlns="http://www.w3.org/2000/svg" xmlns:xlink="http://www.w3.org/1999/xlink">
<g id="graph0" class="graph" transform="scale(1 1) rotate(0) translate(8.64 1995.41)">
<title>MCC</title>
<polygon fill="white" stroke="transparent" points="-8.64,8.64 -8.64,-1995.41 679.89,-1995.41 679.89,8.64 -8.64,8.64"/>
<text text-anchor="start" x="223.63" y="-1966.17" font-family="Noto Sans CJK SC,Microsoft YaHei,sans-serif" font-weight="bold" font-size="22.00">G02 MCC：程序总流程</text>
<text text-anchor="start" x="224.13" y="-1949.77" font-family="Noto Sans CJK SC,Microsoft YaHei,sans-serif" font-size="15.00">C++ 批量入口 MccStepper::step()</text>
<!-- start -->
<g id="node1" class="node">
<title>start</title>
<ellipse fill="#e9f3ef" stroke="#243746" stroke-width="1.5" cx="223.87" cy="-1894.4" rx="147.16" ry="47.25"/>
<text text-anchor="start" x="203.37" y="-1901.4" font-family="Noto Sans CJK SC,Microsoft YaHei,sans-serif" font-size="20.00" fill="#162a38">开始</text>
<text text-anchor="start" x="135.87" y="-1875.6" font-family="DejaVu Sans Mono,Consolas,monospace" font-size="16.00" fill="#52667a">#include &quot;mcc.hpp&quot;</text>
</g>
<!-- csv -->
<g id="node2" class="node">
<title>csv</title>
<polygon fill="#eef4fb" stroke="#243746" stroke-width="1.5" points="372.96,-1809.03 135.79,-1809.03 74.78,-1723.03 311.95,-1723.03 372.96,-1809.03"/>
<text text-anchor="start" x="140.87" y="-1773.03" font-family="Noto Sans CJK SC,Microsoft YaHei,sans-serif" font-size="20.00" fill="#162a38">输入 CSV 模型目录</text>
<text text-anchor="start" x="164.87" y="-1747.23" font-family="DejaVu Sans Mono,Consolas,monospace" font-size="16.00" fill="#52667a">manifest.csv</text>
</g>
<!-- start&#45;&gt;csv -->
<g id="edge1" class="edge">
<title>start&#45;&gt;csv</title>
<path fill="none" stroke="#243746" stroke-width="1.3" d="M223.87,-1847.02C223.87,-1847.02 223.87,-1817.02 223.87,-1817.02"/>
<polygon fill="#243746" stroke="#243746" stroke-width="1.3" points="226.67,-1817.02 223.87,-1809.02 221.07,-1817.02 226.67,-1817.02"/>
</g>
<!-- load -->
<g id="node3" class="node">
<title>load</title>
<polygon fill="white" stroke="#243746" stroke-width="1.5" points="352.37,-1685.03 95.37,-1685.03 95.37,-1542.03 352.37,-1542.03 352.37,-1685.03"/>
<text text-anchor="start" x="132.87" y="-1658.53" font-family="Noto Sans CJK SC,Microsoft YaHei,sans-serif" font-size="20.00" fill="#162a38">读取并校验反应模型</text>
<text text-anchor="start" x="132.87" y="-1636.53" font-family="Noto Sans CJK SC,Microsoft YaHei,sans-serif" font-size="20.00" fill="#162a38">编译后跨时间步复用</text>
<text text-anchor="start" x="141.37" y="-1610.73" font-family="DejaVu Sans Mono,Consolas,monospace" font-size="16.00" fill="#52667a">MccEngine::load()</text>
<text text-anchor="start" x="116.87" y="-1592.73" font-family="DejaVu Sans Mono,Consolas,monospace" font-size="16.00" fill="#52667a">fun_G02_mcc_engine.cpp</text>
<text text-anchor="start" x="121.87" y="-1574.73" font-family="DejaVu Sans Mono,Consolas,monospace" font-size="16.00" fill="#52667a">fun_G02_mcc_model.cpp</text>
<text text-anchor="start" x="111.87" y="-1556.73" font-family="DejaVu Sans Mono,Consolas,monospace" font-size="16.00" fill="#52667a">fun_G02_mcc_compile.cpp</text>
</g>
<!-- csv&#45;&gt;load -->
<g id="edge2" class="edge">
<title>csv&#45;&gt;load</title>
<path fill="none" stroke="#243746" stroke-width="1.3" d="M223.87,-1723.03C223.87,-1723.03 223.87,-1693.03 223.87,-1693.03"/>
<polygon fill="#243746" stroke="#243746" stroke-width="1.3" points="226.67,-1693.03 223.87,-1685.03 221.07,-1693.03 226.67,-1693.03"/>
</g>
<!-- valid -->
<g id="node4" class="node">
<title>valid</title>
<polygon fill="#fff7df" stroke="#243746" stroke-width="1.5" points="223.87,-1504.03 121.87,-1448.03 223.87,-1392.03 325.87,-1448.03 223.87,-1504.03"/>
<text text-anchor="middle" x="223.87" y="-1454.03" font-family="Noto Sans CJK SC,Microsoft YaHei,sans-serif" font-size="20.00" fill="#162a38">模型加载</text>
<text text-anchor="middle" x="223.87" y="-1432.03" font-family="Noto Sans CJK SC,Microsoft YaHei,sans-serif" font-size="20.00" fill="#162a38">成功？</text>
</g>
<!-- load&#45;&gt;valid -->
<g id="edge3" class="edge">
<title>load&#45;&gt;valid</title>
<path fill="none" stroke="#243746" stroke-width="1.3" d="M223.87,-1542.03C223.87,-1542.03 223.87,-1512.03 223.87,-1512.03"/>
<polygon fill="#243746" stroke="#243746" stroke-width="1.3" points="226.67,-1512.03 223.87,-1504.03 221.07,-1512.03 226.67,-1512.03"/>
</g>
<!-- step_entry -->
<g id="node5" class="node">
<title>step_entry</title>
<ellipse fill="white" stroke="#243746" stroke-width="1.5" cx="223.87" cy="-1373.02" rx="1.62" ry="1.62"/>
</g>
<!-- valid&#45;&gt;step_entry -->
<g id="edge10" class="edge">
<title>valid&#45;&gt;step_entry</title>
<path fill="none" stroke="#243746" stroke-width="1.3" d="M223.87,-1392.02C223.87,-1392.02 223.87,-1382.64 223.87,-1382.64"/>
<polygon fill="#243746" stroke="#243746" stroke-width="1.3" points="226.67,-1382.64 223.87,-1374.64 221.07,-1382.64 226.67,-1382.64"/>
<polygon fill="white" stroke="transparent" points="238.87,-1372.83 238.87,-1393.83 258.87,-1393.83 258.87,-1372.83 238.87,-1372.83"/>
<text text-anchor="start" x="240.87" y="-1379.33" font-family="Noto Sans CJK SC,Microsoft YaHei,sans-serif" font-size="15.00" fill="#243746">是</text>
</g>
<!-- error -->
<g id="node15" class="node">
<title>error</title>
<ellipse fill="#fbeceb" stroke="#aa4444" stroke-width="1.5" cx="576.5" cy="-490.21" rx="94.51" ry="60.62"/>
<text text-anchor="middle" x="576.5" y="-507.21" font-family="Noto Sans CJK SC,Microsoft YaHei,sans-serif" font-size="20.00" fill="#162a38">抛出 Error</text>
<text text-anchor="middle" x="576.5" y="-485.21" font-family="Noto Sans CJK SC,Microsoft YaHei,sans-serif" font-size="20.00" fill="#162a38">结束</text>
<text text-anchor="middle" x="576.5" y="-463.21" font-family="Noto Sans CJK SC,Microsoft YaHei,sans-serif" font-size="20.00" fill="#162a38">不提交更新</text>
</g>
<!-- valid&#45;&gt;error -->
<g id="edge12" class="edge">
<title>valid&#45;&gt;error</title>
<path fill="none" stroke="#243746" stroke-width="1.3" d="M325.87,-1448.03C325.87,-1448.03 625.77,-1448.03 625.77,-1448.03 625.77,-1448.03 625.77,-550.16 625.77,-550.16"/>
<polygon fill="#243746" stroke="#243746" stroke-width="1.3" points="628.57,-550.16 625.77,-542.16 622.97,-550.16 628.57,-550.16"/>
<polygon fill="white" stroke="transparent" points="465.82,-1453.53 465.82,-1474.53 485.82,-1474.53 485.82,-1453.53 465.82,-1453.53"/>
<text text-anchor="start" x="467.82" y="-1460.03" font-family="Noto Sans CJK SC,Microsoft YaHei,sans-serif" font-size="15.00" fill="#243746">否</text>
</g>
<!-- input -->
<g id="node6" class="node">
<title>input</title>
<polygon fill="#eef4fb" stroke="#243746" stroke-width="1.5" points="365.94,-1354.03 139.94,-1354.03 81.8,-1268.03 307.8,-1268.03 365.94,-1354.03"/>
<text text-anchor="middle" x="223.87" y="-1317.03" font-family="Noto Sans CJK SC,Microsoft YaHei,sans-serif" font-size="20.00" fill="#162a38">提供本步粒子</text>
<text text-anchor="middle" x="223.87" y="-1295.03" font-family="Noto Sans CJK SC,Microsoft YaHei,sans-serif" font-size="20.00" fill="#162a38">背景与 Δt</text>
</g>
<!-- step_entry&#45;&gt;input -->
<g id="edge11" class="edge">
<title>step_entry&#45;&gt;input</title>
<path fill="none" stroke="#243746" stroke-width="1.3" d="M223.87,-1371.4C223.87,-1371.4 223.87,-1362.02 223.87,-1362.02"/>
<polygon fill="#243746" stroke="#243746" stroke-width="1.3" points="226.67,-1362.02 223.87,-1354.02 221.07,-1362.02 226.67,-1362.02"/>
</g>
<!-- prepare -->
<g id="node7" class="node">
<title>prepare</title>
<polygon fill="white" stroke="#243746" stroke-width="1.5" points="366.87,-1230.03 80.87,-1230.03 80.87,-1123.03 366.87,-1123.03 366.87,-1230.03"/>
<text text-anchor="start" x="162.87" y="-1203.53" font-family="Noto Sans CJK SC,Microsoft YaHei,sans-serif" font-size="20.00" fill="#162a38">准备背景缓存</text>
<text text-anchor="start" x="162.87" y="-1181.53" font-family="Noto Sans CJK SC,Microsoft YaHei,sans-serif" font-size="20.00" fill="#162a38">建立粒子快照</text>
<text text-anchor="start" x="96.87" y="-1155.73" font-family="DejaVu Sans Mono,Consolas,monospace" font-size="16.00" fill="#52667a">MccStepper::prepare_step()</text>
<text text-anchor="start" x="121.37" y="-1137.73" font-family="DejaVu Sans Mono,Consolas,monospace" font-size="16.00" fill="#52667a">fun_G02_mcc_batch.cpp</text>
</g>
<!-- input&#45;&gt;prepare -->
<g id="edge4" class="edge">
<title>input&#45;&gt;prepare</title>
<path fill="none" stroke="#243746" stroke-width="1.3" d="M223.87,-1268.03C223.87,-1268.03 223.87,-1238.03 223.87,-1238.03"/>
<polygon fill="#243746" stroke="#243746" stroke-width="1.3" points="226.67,-1238.03 223.87,-1230.03 221.07,-1238.03 226.67,-1238.03"/>
</g>
<!-- collisions -->
<g id="node8" class="node">
<title>collisions</title>
<polygon fill="white" stroke="#243746" stroke-width="1.5" points="347.37,-1085.03 100.37,-1085.03 100.37,-920.03 347.37,-920.03 347.37,-1085.03"/>
<text text-anchor="start" x="132.87" y="-1058.53" font-family="Noto Sans CJK SC,Microsoft YaHei,sans-serif" font-size="20.00" fill="#162a38">逐粒子完成碰撞处理</text>
<text text-anchor="start" x="120.37" y="-1036.53" font-family="Noto Sans CJK SC,Microsoft YaHei,sans-serif" font-size="20.00" fill="#162a38">抽候选 → 真实 / 空碰撞</text>
<text text-anchor="start" x="142.87" y="-1014.53" font-family="Noto Sans CJK SC,Microsoft YaHei,sans-serif" font-size="20.00" fill="#162a38">循环处理剩余时间</text>
<text text-anchor="start" x="170.37" y="-988.73" font-family="DejaVu Sans Mono,Consolas,monospace" font-size="16.00" fill="#52667a">MccEngine::</text>
<text text-anchor="start" x="126.37" y="-970.73" font-family="DejaVu Sans Mono,Consolas,monospace" font-size="16.00" fill="#52667a">collide_full_batch()</text>
<text text-anchor="start" x="198.37" y="-952.73" font-family="DejaVu Sans Mono,Consolas,monospace" font-size="16.00" fill="#52667a">(内部)</text>
<text text-anchor="start" x="116.87" y="-934.73" font-family="DejaVu Sans Mono,Consolas,monospace" font-size="16.00" fill="#52667a">fun_G02_mcc_engine.cpp</text>
</g>
<!-- prepare&#45;&gt;collisions -->
<g id="edge5" class="edge">
<title>prepare&#45;&gt;collisions</title>
<path fill="none" stroke="#243746" stroke-width="1.3" d="M223.87,-1123.03C223.87,-1123.03 223.87,-1093.03 223.87,-1093.03"/>
<polygon fill="#243746" stroke="#243746" stroke-width="1.3" points="226.67,-1093.03 223.87,-1085.03 221.07,-1093.03 226.67,-1093.03"/>
</g>
<!-- prepare&#45;&gt;error -->
<g id="edge17" class="edge">
<title>prepare&#45;&gt;error</title>
<path fill="none" stroke="#aa4444" stroke-width="1.3" stroke-dasharray="5,2" d="M366.87,-1176.53C366.87,-1176.53 587.87,-1176.53 587.87,-1176.53 587.87,-1176.53 587.87,-558.58 587.87,-558.58"/>
<polygon fill="#aa4444" stroke="#aa4444" stroke-width="1.3" points="590.67,-558.58 587.87,-550.58 585.07,-558.58 590.67,-558.58"/>
<polygon fill="white" stroke="transparent" points="459.87,-1182.03 459.87,-1203.03 494.87,-1203.03 494.87,-1182.03 459.87,-1182.03"/>
<text text-anchor="start" x="462.37" y="-1188.53" font-family="Noto Sans CJK SC,Microsoft YaHei,sans-serif" font-size="15.00" fill="#243746">出错</text>
</g>
<!-- stage -->
<g id="node9" class="node">
<title>stage</title>
<polygon fill="white" stroke="#243746" stroke-width="1.5" points="345.37,-882.03 102.37,-882.03 102.37,-739.03 345.37,-739.03 345.37,-882.03"/>
<text text-anchor="start" x="183.37" y="-855.53" font-family="Noto Sans CJK SC,Microsoft YaHei,sans-serif" font-size="20.00" fill="#162a38">汇总统计</text>
<text text-anchor="start" x="118.87" y="-833.53" font-family="Noto Sans CJK SC,Microsoft YaHei,sans-serif" font-size="20.00" fill="#162a38">分配产物 ID 并准备存储</text>
<text text-anchor="start" x="136.37" y="-807.73" font-family="DejaVu Sans Mono,Consolas,monospace" font-size="16.00" fill="#52667a">MccStepper::step()</text>
<text text-anchor="start" x="141.37" y="-789.73" font-family="DejaVu Sans Mono,Consolas,monospace" font-size="16.00" fill="#52667a">PreparedMccStep::</text>
<text text-anchor="start" x="145.87" y="-771.73" font-family="DejaVu Sans Mono,Consolas,monospace" font-size="16.00" fill="#52667a">prepare_commit()</text>
<text text-anchor="start" x="121.87" y="-753.73" font-family="DejaVu Sans Mono,Consolas,monospace" font-size="16.00" fill="#52667a">fun_G02_mcc_batch.cpp</text>
</g>
<!-- collisions&#45;&gt;stage -->
<g id="edge6" class="edge">
<title>collisions&#45;&gt;stage</title>
<path fill="none" stroke="#243746" stroke-width="1.3" d="M223.87,-920.03C223.87,-920.03 223.87,-890.03 223.87,-890.03"/>
<polygon fill="#243746" stroke="#243746" stroke-width="1.3" points="226.67,-890.03 223.87,-882.03 221.07,-890.03 226.67,-890.03"/>
</g>
<!-- collisions&#45;&gt;error -->
<g id="edge18" class="edge">
<title>collisions&#45;&gt;error</title>
<path fill="none" stroke="#aa4444" stroke-width="1.3" stroke-dasharray="5,2" d="M347.38,-1002.53C347.38,-1002.53 549.97,-1002.53 549.97,-1002.53 549.97,-1002.53 549.97,-556.59 549.97,-556.59"/>
<polygon fill="#aa4444" stroke="#aa4444" stroke-width="1.3" points="552.77,-556.59 549.97,-548.59 547.17,-556.59 552.77,-556.59"/>
<polygon fill="white" stroke="transparent" points="431.17,-1008.03 431.17,-1029.03 466.17,-1029.03 466.17,-1008.03 431.17,-1008.03"/>
<text text-anchor="start" x="433.67" y="-1014.53" font-family="Noto Sans CJK SC,Microsoft YaHei,sans-serif" font-size="15.00" fill="#243746">出错</text>
</g>
<!-- ready -->
<g id="node10" class="node">
<title>ready</title>
<polygon fill="#fff7df" stroke="#243746" stroke-width="1.5" points="223.87,-701.03 101.87,-645.03 223.87,-589.03 345.87,-645.03 223.87,-701.03"/>
<text text-anchor="middle" x="223.87" y="-651.03" font-family="Noto Sans CJK SC,Microsoft YaHei,sans-serif" font-size="20.00" fill="#162a38">本步准备</text>
<text text-anchor="middle" x="223.87" y="-629.03" font-family="Noto Sans CJK SC,Microsoft YaHei,sans-serif" font-size="20.00" fill="#162a38">全部成功？</text>
</g>
<!-- stage&#45;&gt;ready -->
<g id="edge7" class="edge">
<title>stage&#45;&gt;ready</title>
<path fill="none" stroke="#243746" stroke-width="1.3" d="M223.87,-739.03C223.87,-739.03 223.87,-709.03 223.87,-709.03"/>
<polygon fill="#243746" stroke="#243746" stroke-width="1.3" points="226.67,-709.03 223.87,-701.03 221.07,-709.03 226.67,-709.03"/>
</g>
<!-- commit -->
<g id="node11" class="node">
<title>commit</title>
<polygon fill="white" stroke="#243746" stroke-width="1.5" points="361.87,-532.71 85.87,-532.71 85.87,-447.71 361.87,-447.71 361.87,-532.71"/>
<text text-anchor="start" x="142.37" y="-506.21" font-family="Noto Sans CJK SC,Microsoft YaHei,sans-serif" font-size="20.00" fill="#162a38">统一写回粒子变化</text>
<text text-anchor="start" x="101.87" y="-480.41" font-family="DejaVu Sans Mono,Consolas,monospace" font-size="16.00" fill="#52667a">PreparedMccStep::commit()</text>
<text text-anchor="start" x="121.37" y="-462.41" font-family="DejaVu Sans Mono,Consolas,monospace" font-size="16.00" fill="#52667a">fun_G02_mcc_batch.cpp</text>
</g>
<!-- ready&#45;&gt;commit -->
<g id="edge13" class="edge">
<title>ready&#45;&gt;commit</title>
<path fill="none" stroke="#243746" stroke-width="1.3" d="M223.87,-589.02C223.87,-589.02 223.87,-540.71 223.87,-540.71"/>
<polygon fill="#243746" stroke="#243746" stroke-width="1.3" points="226.67,-540.71 223.87,-532.71 221.07,-540.71 226.67,-540.71"/>
<polygon fill="white" stroke="transparent" points="238.87,-550.37 238.87,-571.37 258.87,-571.37 258.87,-550.37 238.87,-550.37"/>
<text text-anchor="start" x="240.87" y="-556.87" font-family="Noto Sans CJK SC,Microsoft YaHei,sans-serif" font-size="15.00" fill="#243746">是</text>
</g>
<!-- ready&#45;&gt;error -->
<g id="edge14" class="edge">
<title>ready&#45;&gt;error</title>
<path fill="none" stroke="#243746" stroke-width="1.3" d="M345.87,-645.03C345.87,-645.03 445.75,-645.03 445.75,-645.03 445.75,-645.03 445.75,-490.21 445.75,-490.21 445.75,-490.21 473.75,-490.21 473.75,-490.21"/>
<polygon fill="#243746" stroke="#243746" stroke-width="1.3" points="473.75,-493.01 481.75,-490.21 473.75,-487.41 473.75,-493.01"/>
<polygon fill="white" stroke="transparent" points="385.81,-650.53 385.81,-671.53 405.81,-671.53 405.81,-650.53 385.81,-650.53"/>
<text text-anchor="start" x="387.81" y="-657.03" font-family="Noto Sans CJK SC,Microsoft YaHei,sans-serif" font-size="15.00" fill="#243746">否</text>
</g>
<!-- report -->
<g id="node12" class="node">
<title>report</title>
<polygon fill="#eef4fb" stroke="#243746" stroke-width="1.5" points="417.62,-391.4 109.41,-391.4 30.12,-247.4 338.33,-247.4 417.62,-391.4"/>
<text text-anchor="start" x="117.87" y="-355.4" font-family="Noto Sans CJK SC,Microsoft YaHei,sans-serif" font-size="20.00" fill="#162a38">返回并读取 StepReport</text>
<text text-anchor="start" x="132.87" y="-333.4" font-family="Noto Sans CJK SC,Microsoft YaHei,sans-serif" font-size="20.00" fill="#162a38">主程序应用背景收支</text>
<text text-anchor="start" x="141.37" y="-307.6" font-family="DejaVu Sans Mono,Consolas,monospace" font-size="16.00" fill="#52667a">PreparedMccStep::</text>
<text text-anchor="start" x="160.87" y="-289.6" font-family="DejaVu Sans Mono,Consolas,monospace" font-size="16.00" fill="#52667a">take_report()</text>
<text text-anchor="start" x="121.87" y="-271.6" font-family="DejaVu Sans Mono,Consolas,monospace" font-size="16.00" fill="#52667a">fun_G02_mcc_batch.cpp</text>
</g>
<!-- commit&#45;&gt;report -->
<g id="edge8" class="edge">
<title>commit&#45;&gt;report</title>
<path fill="none" stroke="#243746" stroke-width="1.3" d="M223.87,-447.71C223.87,-447.71 223.87,-399.4 223.87,-399.4"/>
<polygon fill="#243746" stroke="#243746" stroke-width="1.3" points="226.67,-399.4 223.87,-391.4 221.07,-399.4 226.67,-399.4"/>
</g>
<!-- next -->
<g id="node13" class="node">
<title>next</title>
<polygon fill="#fff7df" stroke="#243746" stroke-width="1.5" points="223.87,-209.4 101.87,-153.4 223.87,-97.4 345.87,-153.4 223.87,-209.4"/>
<text text-anchor="middle" x="223.87" y="-159.4" font-family="Noto Sans CJK SC,Microsoft YaHei,sans-serif" font-size="20.00" fill="#162a38">还有下一个</text>
<text text-anchor="middle" x="223.87" y="-137.4" font-family="Noto Sans CJK SC,Microsoft YaHei,sans-serif" font-size="20.00" fill="#162a38">时间步？</text>
</g>
<!-- report&#45;&gt;next -->
<g id="edge9" class="edge">
<title>report&#45;&gt;next</title>
<path fill="none" stroke="#243746" stroke-width="1.3" d="M223.87,-247.4C223.87,-247.4 223.87,-217.4 223.87,-217.4"/>
<polygon fill="#243746" stroke="#243746" stroke-width="1.3" points="226.67,-217.4 223.87,-209.4 221.07,-217.4 226.67,-217.4"/>
</g>
<!-- next&#45;&gt;step_entry -->
<g id="edge15" class="edge">
<title>next&#45;&gt;step_entry</title>
<path fill="none" stroke="#243746" stroke-width="1.3" d="M101.87,-153.4C101.87,-153.4 0,-153.4 0,-153.4 0,-153.4 0,-1373.02 0,-1373.02 0,-1373.02 214.25,-1373.02 214.25,-1373.02"/>
<polygon fill="#243746" stroke="#243746" stroke-width="1.3" points="214.25,-1375.82 222.25,-1373.02 214.25,-1370.22 214.25,-1375.82"/>
<polygon fill="white" stroke="transparent" points="40.94,-158.9 40.94,-179.9 60.94,-179.9 60.94,-158.9 40.94,-158.9"/>
<text text-anchor="start" x="42.94" y="-165.4" font-family="Noto Sans CJK SC,Microsoft YaHei,sans-serif" font-size="15.00" fill="#243746">是</text>
</g>
<!-- end -->
<g id="node14" class="node">
<title>end</title>
<ellipse fill="#e9f3ef" stroke="#243746" stroke-width="1.5" cx="223.87" cy="-29.7" rx="51.74" ry="29.9"/>
<text text-anchor="middle" x="223.87" y="-24.7" font-family="Noto Sans CJK SC,Microsoft YaHei,sans-serif" font-size="20.00" fill="#162a38">结束</text>
</g>
<!-- next&#45;&gt;end -->
<g id="edge16" class="edge">
<title>next&#45;&gt;end</title>
<path fill="none" stroke="#243746" stroke-width="1.3" d="M223.87,-97.4C223.87,-97.4 223.87,-67.4 223.87,-67.4"/>
<polygon fill="#243746" stroke="#243746" stroke-width="1.3" points="226.67,-67.4 223.87,-59.4 221.07,-67.4 226.67,-67.4"/>
<polygon fill="white" stroke="transparent" points="238.87,-67.9 238.87,-88.9 258.87,-88.9 258.87,-67.9 238.87,-67.9"/>
<text text-anchor="start" x="240.87" y="-74.4" font-family="Noto Sans CJK SC,Microsoft YaHei,sans-serif" font-size="15.00" fill="#243746">否</text>
</g>
</g>
</svg>
